PathFileType	4	(x/y/z)	TRC_MarkerData\Passive\Passive_Pref0009.trc
DataRate	CameraRate	NumFrames	NumMarkers	Units	OrigDataRate	OrigDataStartFrame	OrigNumFrames
240	240	5	50	mm	240	197	262
Frame#	Time	R_AC			L_AC			HEAD			STERN			L_IC			R_IC			L_ASIS			R_ASIS			L_GT			R_GT			L_PSIS			R_PSIS			SACRAL			L_LAT_KNEE			L_MED_KNEE			R_LAT_KNEE			R_MED_KNEE			L_LAT_ANK			L_MED_ANK			R_LAT_ANK			R_MED_ANK			L_THIGH_PROX_POST			L_THIGH_PROX_ANT			L_THIGH_DIST_ANT			L_THIGH_DIST_POST			R_THIGH_PROX_POST			R_THIGH_PROX_ANT			R_THIGH_DIST_ANT			R_THIGH_DIST_POST			L_SHANK_PROX_POST			L_SHANK_PROX_ANT			L_SHANK_DIST_ANT			L_SHANK_DIST_POST			R_SHANK_PROX_POST			R_SHANK_PROX_ANT			R_SHANK_DIST_ANT			R_SHANK_DIST_POST			L_HEEL_LAT			L_HEEL_SUP			L_HEEL_MED			R_HEEL_LAT			R_HEEL_SUP			R_HEEL_MED			L_1ST_MET			L_5TH_MET			L_TOE			R_1ST_MET			R_5TH_MET			R_TOE			C7			
		X1	Y1	Z1	X2	Y2	Z2	X3	Y3	Z3	X4	Y4	Z4	X5	Y5	Z5	X6	Y6	Z6	X7	Y7	Z7	X8	Y8	Z8	X9	Y9	Z9	X10	Y10	Z10	X11	Y11	Z11	X12	Y12	Z12	X13	Y13	Z13	X14	Y14	Z14	X15	Y15	Z15	X16	Y16	Z16	X17	Y17	Z17	X18	Y18	Z18	X19	Y19	Z19	X20	Y20	Z20	X21	Y21	Z21	X22	Y22	Z22	X23	Y23	Z23	X24	Y24	Z24	X25	Y25	Z25	X26	Y26	Z26	X27	Y27	Z27	X28	Y28	Z28	X29	Y29	Z29	X30	Y30	Z30	X31	Y31	Z31	X32	Y32	Z32	X33	Y33	Z33	X34	Y34	Z34	X35	Y35	Z35	X36	Y36	Z36	X37	Y37	Z37	X38	Y38	Z38	X39	Y39	Z39	X40	Y40	Z40	X41	Y41	Z41	X42	Y42	Z42	X43	Y43	Z43	X44	Y44	Z44	X45	Y45	Z45	X46	Y46	Z46	X47	Y47	Z47	X48	Y48	Z48	X49	Y49	Z49	X50	Y50	Z50	

197	0.8198	307.7	1502.4	397.83	321.9	1516.3	44.777	325.05	1795.8	235.91	356.53	1453.5	221.37	257.07	1077	68.274	297.37	1110.5	392.12	320.39	999.18	89.661	366.75	1017.8	360.64	238.6	910.55	46.968	299.64	948.01	426.77	152.55	1067.6	199.79	164.32	1079.6	291.17	145.4	1041.6	249.47	383.45	534.42	69.674	396.92	515.68	204.46	314.17	529.91	345.25	296.67	553.25	217.35	77.831	246.74	110.21	98.831	226.92	174.75	212.06	110.59	296.12	224.92	138.84	208.93	289.82	745.04	67.735	351.86	764.19	66.847	382.2	696.28	73.571	319.25	674.98	74.362	267.96	728.12	390.9	335.1	740.63	391.97	340.6	667.45	374.58	273.93	656.04	371.03	313.51	483.08	80.813	356.22	456.6	87.454	309.97	420.49	97.817	262.72	452.54	111.15	226.43	376.63	343.3	294.13	367.42	339.58	278.38	293.93	323.35	209.64	306.51	325.5	-22.522	245.31	149.74	3.4258	259.99	183.34	-3.4958	225.7	210.8	139.7	48.672	263.31	135.57	79.348	231.79	151.15	55.355	197.37	143.28	97.503	135.88	80.413	134.95	53.061	177.18	74.571	79.962	359.35	58.287	205.58	326.29	44.934	310.66	411.13	55.827	256.12	237.18	1570.4	223.2
198	0.82398	313.49	1503.8	397.7	327.18	1517.2	44.543	330.89	1796.9	235.29	362.12	1454.6	221.26	262.65	1078.5	68.14	302.69	1111.3	391.99	325.96	1000.7	89.487	371.91	1018.5	360.45	245.03	912.26	46.301	304.48	948.66	426.48	157.92	1069	199.49	169.72	1080.7	290.84	150.81	1042.8	249.07	393.65	536.65	70.003	405.94	519.08	205.21	315.56	530.48	345.29	298.43	553.75	217.31	92.919	243.56	108.03	113.49	224.58	173.05	212.54	111.2	296.08	225.47	139.44	208.93	297.89	746.91	67.003	359.77	766.65	66.845	390.72	699.01	73.842	327.97	677.1	73.907	270.85	729.2	390.59	338.13	741.12	391.76	343.01	667.85	374.42	276.26	657.03	370.79	324.52	484.12	80.47	367.7	458.41	87.923	321.96	421.55	97.839	273.88	452.81	110.33	227.36	377.38	343.27	295.03	367.98	339.57	279.17	294.55	323.38	210.42	307.28	325.42	-7.9266	240.54	146.17	17.297	255.96	180.14	10.735	221.69	207.71	139.9	49.397	263.35	135.84	80.063	231.8	151.31	56.014	197.38	160.98	95.691	135.51	98.455	131.46	51.546	196.05	73.012	80.169	359.53	58.162	205.55	326.43	44.977	310.64	411.34	55.612	256.08	242.83	1571.6	222.95
199	0.82816	319.26	1505.1	397.59	332.5	1518.1	44.328	336.73	1798	234.65	367.7	1455.8	221.17	268.27	1080	67.988	307.96	1112.1	391.84	331.54	1002.2	89.303	377.06	1019.2	360.25	251.47	913.96	45.622	309.29	949.29	426.17	163.28	1070.3	199.14	175.11	1081.8	290.47	156.2	1044	248.64	403.62	538.92	70.393	414.87	522.34	205.96	316.95	531.07	345.32	300.19	554.26	217.24	108.12	240.27	105.91	128.32	222.07	171.35	213.04	111.84	296.03	226.03	140.05	208.91	305.92	748.76	66.304	367.63	769.09	66.919	399.17	701.72	74.196	336.62	679.21	73.504	273.76	730.29	390.26	341.16	741.62	391.53	345.44	668.25	374.24	278.62	658.03	370.55	335.38	485.16	80.192	379.03	460.24	88.39	333.85	422.61	97.866	284.97	453.01	109.6	228.31	378.14	343.21	295.94	368.56	339.55	279.97	295.2	323.39	211.21	308.06	325.32	6.8748	235.56	142.75	31.374	251.67	177.07	25.226	217.38	204.72	140.1	50.172	263.39	136.15	80.828	231.8	151.49	56.715	197.38	178.86	93.855	134.97	116.62	128.01	49.981	215.05	71.544	80.16	359.71	58.038	205.51	326.58	45.026	310.62	411.54	55.401	256.03	248.49	1572.7	222.71
200	0.83234	325	1506.4	397.49	337.84	1518.9	44.13	342.55	1799.1	234	373.28	1457	221.11	273.9	1081.4	67.815	313.2	1112.9	391.68	337.14	1003.7	89.107	382.2	1019.9	360.05	257.9	915.63	44.934	314.08	949.9	425.84	168.66	1071.5	198.74	180.49	1082.9	290.06	161.59	1045.1	248.17	413.37	541.22	70.837	423.69	525.45	206.69	318.35	531.66	345.33	301.94	554.78	217.15	123.45	236.9	103.85	143.33	219.41	169.64	213.56	112.5	295.96	226.6	140.67	208.87	313.9	750.61	65.644	375.44	771.49	67.069	407.53	704.39	74.629	345.2	681.31	73.155	276.69	731.37	389.92	344.2	742.12	391.27	347.88	668.67	374.03	281.02	659.02	370.31	346.08	486.18	79.977	390.2	462.08	88.85	345.63	423.67	97.894	295.99	453.13	108.95	229.27	378.92	343.14	296.87	369.15	339.52	280.79	295.85	323.4	212.01	308.85	325.21	21.886	230.38	139.5	45.662	247.14	174.13	39.981	212.8	201.82	140.31	50.997	263.43	136.5	81.644	231.8	151.67	57.46	197.38	196.91	92.005	134.27	134.9	124.61	48.369	234.17	70.174	79.937	359.89	57.915	205.47	326.73	45.08	310.6	411.74	55.194	255.99	254.16	1573.8	222.5
201	0.83653	330.72	1507.6	397.4	343.21	1519.8	43.949	348.38	1800.1	233.33	378.86	1458.1	221.06	279.57	1082.8	67.62	318.41	1113.7	391.51	342.75	1005.1	88.898	387.33	1020.5	359.83	264.32	917.29	44.241	318.85	950.49	425.49	174.04	1072.7	198.3	185.86	1083.9	289.62	166.97	1046.3	247.67	422.88	543.53	71.328	432.39	528.41	207.42	319.78	532.26	345.32	303.7	555.29	217.03	138.89	233.45	101.85	158.52	216.6	167.94	214.1	113.18	295.88	227.19	141.31	208.82	321.83	752.43	65.027	383.19	773.85	67.296	415.81	707.02	75.14	353.7	683.38	72.86	279.66	732.45	389.57	347.24	742.63	390.99	350.35	669.09	373.79	283.45	660.02	370.06	356.63	487.19	79.822	401.21	463.93	89.3	357.31	424.72	97.919	306.94	453.18	108.38	230.25	379.71	343.05	297.81	369.76	339.47	281.62	296.52	323.4	212.82	309.65	325.09	37.109	225	136.4	60.162	242.39	171.32	55.005	207.97	199.03	140.53	51.873	263.46	136.88	82.512	231.8	151.88	58.249	197.37	215.13	90.151	133.4	153.3	121.27	46.712	253.4	68.913	79.505	360.07	57.792	205.43	326.87	45.14	310.58	411.94	54.989	255.94	259.82	1574.8	222.3
